<svg version="1.1" viewBox="0.0 0.0 400.08923884514434 378.750656167979" fill="none" stroke="none" stroke-linecap="square" stroke-miterlimit="10" xmlns:xlink="http://www.w3.org/1999/xlink" xmlns="http://www.w3.org/2000/svg"><clipPath id="p.0"><path d="m0 0l400.08923 0l0 378.75067l-400.08923 0l0 -378.75067z" clip-rule="nonzero"/></clipPath><g clip-path="url(#p.0)"><path fill="#000000" fill-opacity="0.0" d="m0 0l400.08923 0l0 378.75067l-400.08923 0z" fill-rule="evenodd"/><path fill="#d9ead3" d="m139.72966 41.658794l0 0c0 -16.31632 13.501968 -29.543308 30.157486 -29.543308l0 0c7.9982605 0 15.66893 3.1125898 21.324554 8.653035c5.6556244 5.5404434 8.832916 13.054901 8.832916 20.890274l0 0c0 16.316315 -13.501968 29.543308 -30.15747 29.543308l0 0c-16.655518 0 -30.157486 -13.226994 -30.157486 -29.543308z" fill-rule="evenodd"/><path stroke="#000000" stroke-width="1.0" stroke-linejoin="round" stroke-linecap="butt" d="m139.72966 41.658794l0 0c0 -16.31632 13.501968 -29.543308 30.157486 -29.543308l0 0c7.9982605 0 15.66893 3.1125898 21.324554 8.653035c5.6556244 5.5404434 8.832916 13.054901 8.832916 20.890274l0 0c0 16.316315 -13.501968 29.543308 -30.15747 29.543308l0 0c-16.655518 0 -30.157486 -13.226994 -30.157486 -29.543308z" fill-rule="evenodd"/><path fill="#000000" d="m165.48053 45.047543l1.640625 -0.21875q0.28125 1.40625 0.953125 2.015625q0.6875 0.609375 1.65625 0.609375q1.15625 0 1.953125 -0.796875q0.796875 -0.796875 0.796875 -1.984375q0 -1.125 -0.734375 -1.859375q-0.734375 -0.734375 -1.875 -0.734375q-0.46875 0 -1.15625 0.171875l0.1875 -1.4375q0.15625 0.015625 0.265625 0.015625q1.046875 0 1.875 -0.546875q0.84375 -0.546875 0.84375 -1.671875q0 -0.90625 -0.609375 -1.5q-0.609375 -0.59375 -1.578125 -0.59375q-0.953125 0 -1.59375 0.609375q-0.640625 0.59375 -0.8125 1.796875l-1.640625 -0.296875q0.296875 -1.640625 1.359375 -2.546875q1.0625 -0.90625 2.65625 -0.90625q1.09375 0 2.0 0.46875q0.921875 0.46875 1.40625 1.28125q0.5 0.8125 0.5 1.71875q0 0.859375 -0.46875 1.578125q-0.46875 0.703125 -1.375 1.125q1.1875 0.28125 1.84375 1.140625q0.65625 0.859375 0.65625 2.15625q0 1.734375 -1.28125 2.953125q-1.265625 1.21875 -3.21875 1.21875q-1.765625 0 -2.921875 -1.046875q-1.15625 -1.046875 -1.328125 -2.71875z" fill-rule="nonzero"/><path fill="#d9ead3" d="m200.04462 100.74541l0 0c0 -16.316315 13.501968 -29.543304 30.157486 -29.543304l0 0c7.9982605 0 15.66893 3.112587 21.324554 8.65303c5.6556244 5.5404434 8.8329315 13.054901 8.8329315 20.890274l0 0c0 16.316315 -13.501968 29.543304 -30.157486 29.543304l0 0c-16.655518 0 -30.157486 -13.22699 -30.157486 -29.543304z" fill-rule="evenodd"/><path stroke="#000000" stroke-width="1.0" stroke-linejoin="round" stroke-linecap="butt" d="m200.04462 100.74541l0 0c0 -16.316315 13.501968 -29.543304 30.157486 -29.543304l0 0c7.9982605 0 15.66893 3.112587 21.324554 8.65303c5.6556244 5.5404434 8.8329315 13.054901 8.8329315 20.890274l0 0c0 16.316315 -13.501968 29.543304 -30.157486 29.543304l0 0c-16.655518 0 -30.157486 -13.22699 -30.157486 -29.543304z" fill-rule="evenodd"/><path fill="#000000" d="m225.79549 104.165405l1.71875 -0.140625q0.1875 1.25 0.875 1.890625q0.703125 0.625 1.6875 0.625q1.1875 0 2.0 -0.890625q0.828125 -0.890625 0.828125 -2.359375q0 -1.40625 -0.796875 -2.21875q-0.78125 -0.8125 -2.0625 -0.8125q-0.78125 0 -1.421875 0.359375q-0.640625 0.359375 -1.0 0.9375l-1.546875 -0.203125l1.296875 -6.859375l6.640625 0l0 1.5625l-5.328125 0l-0.71875 3.59375q1.203125 -0.84375 2.515625 -0.84375q1.75 0 2.953125 1.21875q1.203125 1.203125 1.203125 3.109375q0 1.8125 -1.046875 3.140625q-1.296875 1.625 -3.515625 1.625q-1.8125 0 -2.96875 -1.015625q-1.15625 -1.03125 -1.3125 -2.71875z" fill-rule="nonzero"/><path fill="#000000" fill-opacity="0.0" d="m191.20825 62.563797l17.669296 17.291336" fill-rule="evenodd"/><path stroke="#000000" stroke-width="1.0" stroke-linejoin="round" stroke-linecap="butt" d="m191.20825 62.563797l17.669296 17.291336" fill-rule="evenodd"/></g></svg>