<svg version="1.1" viewBox="0.0 0.0 400.08923884514434 378.750656167979" fill="none" stroke="none" stroke-linecap="square" stroke-miterlimit="10" xmlns:xlink="http://www.w3.org/1999/xlink" xmlns="http://www.w3.org/2000/svg"><clipPath id="p.0"><path d="m0 0l400.08923 0l0 378.75067l-400.08923 0l0 -378.75067z" clip-rule="nonzero"/></clipPath><g clip-path="url(#p.0)"><path fill="#000000" fill-opacity="0.0" d="m0 0l400.08923 0l0 378.75067l-400.08923 0z" fill-rule="evenodd"/><path fill="#d9ead3" d="m139.72966 41.658794l0 0c0 -16.31632 13.501968 -29.543308 30.157486 -29.543308l0 0c7.9982605 0 15.66893 3.1125898 21.324554 8.653035c5.6556244 5.5404434 8.832916 13.054901 8.832916 20.890274l0 0c0 16.316315 -13.501968 29.543308 -30.15747 29.543308l0 0c-16.655518 0 -30.157486 -13.226994 -30.157486 -29.543308z" fill-rule="evenodd"/><path stroke="#000000" stroke-width="1.0" stroke-linejoin="round" stroke-linecap="butt" d="m139.72966 41.658794l0 0c0 -16.31632 13.501968 -29.543308 30.157486 -29.543308l0 0c7.9982605 0 15.66893 3.1125898 21.324554 8.653035c5.6556244 5.5404434 8.832916 13.054901 8.832916 20.890274l0 0c0 16.316315 -13.501968 29.543308 -30.15747 29.543308l0 0c-16.655518 0 -30.157486 -13.226994 -30.157486 -29.543308z" fill-rule="evenodd"/><path fill="#000000" d="m165.48053 45.047543l1.640625 -0.21875q0.28125 1.40625 0.953125 2.015625q0.6875 0.609375 1.65625 0.609375q1.15625 0 1.953125 -0.796875q0.796875 -0.796875 0.796875 -1.984375q0 -1.125 -0.734375 -1.859375q-0.734375 -0.734375 -1.875 -0.734375q-0.46875 0 -1.15625 0.171875l0.1875 -1.4375q0.15625 0.015625 0.265625 0.015625q1.046875 0 1.875 -0.546875q0.84375 -0.546875 0.84375 -1.671875q0 -0.90625 -0.609375 -1.5q-0.609375 -0.59375 -1.578125 -0.59375q-0.953125 0 -1.59375 0.609375q-0.640625 0.59375 -0.8125 1.796875l-1.640625 -0.296875q0.296875 -1.640625 1.359375 -2.546875q1.0625 -0.90625 2.65625 -0.90625q1.09375 0 2.0 0.46875q0.921875 0.46875 1.40625 1.28125q0.5 0.8125 0.5 1.71875q0 0.859375 -0.46875 1.578125q-0.46875 0.703125 -1.375 1.125q1.1875 0.28125 1.84375 1.140625q0.65625 0.859375 0.65625 2.15625q0 1.734375 -1.28125 2.953125q-1.265625 1.21875 -3.21875 1.21875q-1.765625 0 -2.921875 -1.046875q-1.15625 -1.046875 -1.328125 -2.71875z" fill-rule="nonzero"/><path fill="#d9ead3" d="m260.3596 159.83202l0 0c0 -16.316315 13.501953 -29.543304 30.15747 -29.543304l0 0c7.9982605 0 15.668945 3.1125946 21.324554 8.65303c5.6556396 5.540451 8.832916 13.054901 8.832916 20.890274l0 0c0 16.31633 -13.501953 29.54332 -30.15747 29.54332l0 0c-16.655518 0 -30.15747 -13.22699 -30.15747 -29.54332z" fill-rule="evenodd"/><path stroke="#000000" stroke-width="1.0" stroke-linejoin="round" stroke-linecap="butt" d="m260.3596 159.83202l0 0c0 -16.316315 13.501953 -29.543304 30.15747 -29.543304l0 0c7.9982605 0 15.668945 3.1125946 21.324554 8.65303c5.6556396 5.540451 8.832916 13.054901 8.832916 20.890274l0 0c0 16.31633 -13.501953 29.54332 -30.15747 29.54332l0 0c-16.655518 0 -30.15747 -13.22699 -30.15747 -29.54332z" fill-rule="evenodd"/><path fill="#000000" d="m287.09448 166.75201l-1.640625 0l0 -10.453125q-0.59375 0.5625 -1.5625 1.140625q-0.953125 0.5625 -1.71875 0.84375l0 -1.59375q1.375 -0.640625 2.40625 -1.5625q1.03125 -0.921875 1.453125 -1.78125l1.0625 0l0 13.40625zm4.203827 -6.59375q0 -2.359375 0.484375 -3.796875q0.484375 -1.453125 1.4375 -2.234375q0.96875 -0.78125 2.421875 -0.78125q1.078125 0 1.890625 0.4375q0.8125 0.421875 1.328125 1.25q0.53125 0.8125 0.828125 1.984375q0.3125 1.15625 0.3125 3.140625q0 2.359375 -0.484375 3.8125q-0.484375 1.4375 -1.453125 2.234375q-0.953125 0.78125 -2.421875 0.78125q-1.921875 0 -3.03125 -1.390625q-1.3125 -1.671875 -1.3125 -5.4375zm1.671875 0q0 3.296875 0.765625 4.390625q0.78125 1.078125 1.90625 1.078125q1.140625 0 1.90625 -1.09375q0.765625 -1.09375 0.765625 -4.375q0 -3.296875 -0.765625 -4.375q-0.765625 -1.078125 -1.921875 -1.078125q-1.125 0 -1.796875 0.953125q-0.859375 1.21875 -0.859375 4.5z" fill-rule="nonzero"/><path fill="#d9ead3" d="m200.04462 100.74541l0 0c0 -16.316315 13.501968 -29.543304 30.157486 -29.543304l0 0c7.9982605 0 15.66893 3.112587 21.324554 8.65303c5.6556244 5.5404434 8.8329315 13.054901 8.8329315 20.890274l0 0c0 16.316315 -13.501968 29.543304 -30.157486 29.543304l0 0c-16.655518 0 -30.157486 -13.22699 -30.157486 -29.543304z" fill-rule="evenodd"/><path stroke="#000000" stroke-width="1.0" stroke-linejoin="round" stroke-linecap="butt" d="m200.04462 100.74541l0 0c0 -16.316315 13.501968 -29.543304 30.157486 -29.543304l0 0c7.9982605 0 15.66893 3.112587 21.324554 8.65303c5.6556244 5.5404434 8.8329315 13.054901 8.8329315 20.890274l0 0c0 16.316315 -13.501968 29.543304 -30.157486 29.543304l0 0c-16.655518 0 -30.157486 -13.22699 -30.157486 -29.543304z" fill-rule="evenodd"/><path fill="#000000" d="m225.79549 104.165405l1.71875 -0.140625q0.1875 1.25 0.875 1.890625q0.703125 0.625 1.6875 0.625q1.1875 0 2.0 -0.890625q0.828125 -0.890625 0.828125 -2.359375q0 -1.40625 -0.796875 -2.21875q-0.78125 -0.8125 -2.0625 -0.8125q-0.78125 0 -1.421875 0.359375q-0.640625 0.359375 -1.0 0.9375l-1.546875 -0.203125l1.296875 -6.859375l6.640625 0l0 1.5625l-5.328125 0l-0.71875 3.59375q1.203125 -0.84375 2.515625 -0.84375q1.75 0 2.953125 1.21875q1.203125 1.203125 1.203125 3.109375q0 1.8125 -1.046875 3.140625q-1.296875 1.625 -3.515625 1.625q-1.8125 0 -2.96875 -1.015625q-1.15625 -1.03125 -1.3125 -2.71875z" fill-rule="nonzero"/><path fill="#d9ead3" d="m320.67453 218.91864l0 0c0 -16.31633 13.501984 -29.543304 30.157501 -29.543304l0 0c7.9982605 0 15.668915 3.1125793 21.324554 8.65303c5.655609 5.540436 8.832916 13.054901 8.832916 20.890274l0 0c0 16.316315 -13.501953 29.543304 -30.15747 29.543304l0 0c-16.655518 0 -30.157501 -13.22699 -30.157501 -29.543304z" fill-rule="evenodd"/><path stroke="#000000" stroke-width="1.0" stroke-linejoin="round" stroke-linecap="butt" d="m320.67453 218.91864l0 0c0 -16.31633 13.501984 -29.543304 30.157501 -29.543304l0 0c7.9982605 0 15.668915 3.1125793 21.324554 8.65303c5.655609 5.540436 8.832916 13.054901 8.832916 20.890274l0 0c0 16.316315 -13.501953 29.543304 -30.15747 29.543304l0 0c-16.655518 0 -30.157501 -13.22699 -30.157501 -29.543304z" fill-rule="evenodd"/><path fill="#000000" d="m347.40942 225.83864l-1.640625 0l0 -10.453125q-0.59375 0.5625 -1.5625 1.140625q-0.953125 0.5625 -1.71875 0.84375l0 -1.59375q1.375 -0.640625 2.40625 -1.5625q1.03125 -0.921875 1.453125 -1.78125l1.0625 0l0 13.40625zm10.375732 0l-1.640625 0l0 -10.453125q-0.59375 0.5625 -1.5625 1.140625q-0.953125 0.5625 -1.71875 0.84375l0 -1.59375q1.375 -0.640625 2.40625 -1.5625q1.03125 -0.921875 1.453125 -1.78125l1.0625 0l0 13.40625z" fill-rule="nonzero"/><path fill="#d9ead3" d="m79.414696 100.74541l0 0c0 -16.316315 13.501968 -29.543304 30.157486 -29.543304l0 0c7.9982605 0 15.66893 3.112587 21.324562 8.65303c5.6556244 5.5404434 8.832916 13.054901 8.832916 20.890274l0 0c0 16.316315 -13.501968 29.543304 -30.157478 29.543304l0 0c-16.655518 0 -30.157486 -13.22699 -30.157486 -29.543304z" fill-rule="evenodd"/><path stroke="#000000" stroke-width="1.0" stroke-linejoin="round" stroke-linecap="butt" d="m79.414696 100.74541l0 0c0 -16.316315 13.501968 -29.543304 30.157486 -29.543304l0 0c7.9982605 0 15.66893 3.112587 21.324562 8.65303c5.6556244 5.5404434 8.832916 13.054901 8.832916 20.890274l0 0c0 16.316315 -13.501968 29.543304 -30.157478 29.543304l0 0c-16.655518 0 -30.157486 -13.22699 -30.157486 -29.543304z" fill-rule="evenodd"/><path fill="#000000" d="m113.77495 106.08728l0 1.578125l-8.828125 0q-0.015625 -0.59375 0.1875 -1.140625q0.34375 -0.90625 1.078125 -1.78125q0.75 -0.875 2.15625 -2.015625q2.171875 -1.78125 2.9375 -2.828125q0.765625 -1.046875 0.765625 -1.96875q0 -0.984375 -0.703125 -1.640625q-0.6875 -0.671875 -1.8125 -0.671875q-1.1875 0 -1.90625 0.71875q-0.703125 0.703125 -0.703125 1.953125l-1.6875 -0.171875q0.171875 -1.890625 1.296875 -2.875q1.140625 -0.984375 3.03125 -0.984375q1.921875 0 3.046875 1.0625q1.125 1.0625 1.125 2.640625q0 0.796875 -0.328125 1.578125q-0.328125 0.78125 -1.09375 1.640625q-0.75 0.84375 -2.53125 2.34375q-1.46875 1.234375 -1.890625 1.6875q-0.421875 0.4375 -0.6875 0.875l6.546875 0z" fill-rule="nonzero"/><path fill="#d9ead3" d="m139.72966 159.83202l0 0c0 -16.316315 13.501968 -29.543304 30.157486 -29.543304l0 0c7.9982605 0 15.66893 3.1125946 21.324554 8.65303c5.6556244 5.540451 8.832916 13.054901 8.832916 20.890274l0 0c0 16.31633 -13.501968 29.54332 -30.15747 29.54332l0 0c-16.655518 0 -30.157486 -13.22699 -30.157486 -29.54332z" fill-rule="evenodd"/><path stroke="#000000" stroke-width="1.0" stroke-linejoin="round" stroke-linecap="butt" d="m139.72966 159.83202l0 0c0 -16.316315 13.501968 -29.543304 30.157486 -29.543304l0 0c7.9982605 0 15.66893 3.1125946 21.324554 8.65303c5.6556244 5.540451 8.832916 13.054901 8.832916 20.890274l0 0c0 16.31633 -13.501968 29.54332 -30.15747 29.54332l0 0c-16.655518 0 -30.157486 -13.22699 -30.157486 -29.54332z" fill-rule="evenodd"/><path fill="#000000" d="m170.73053 166.75201l0 -3.203125l-5.796875 0l0 -1.5l6.09375 -8.65625l1.34375 0l0 8.65625l1.796875 0l0 1.5l-1.796875 0l0 3.203125l-1.640625 0zm0 -4.703125l0 -6.015625l-4.1875 6.015625l4.1875 0z" fill-rule="nonzero"/><path fill="#d9ead3" d="m200.04462 218.91864l0 0c0 -16.31633 13.501968 -29.543304 30.157486 -29.543304l0 0c7.9982605 0 15.66893 3.1125793 21.324554 8.65303c5.6556244 5.540436 8.8329315 13.054901 8.8329315 20.890274l0 0c0 16.316315 -13.501968 29.543304 -30.157486 29.543304l0 0c-16.655518 0 -30.157486 -13.22699 -30.157486 -29.543304z" fill-rule="evenodd"/><path stroke="#000000" stroke-width="1.0" stroke-linejoin="round" stroke-linecap="butt" d="m200.04462 218.91864l0 0c0 -16.31633 13.501968 -29.543304 30.157486 -29.543304l0 0c7.9982605 0 15.66893 3.1125793 21.324554 8.65303c5.6556244 5.540436 8.8329315 13.054901 8.8329315 20.890274l0 0c0 16.316315 -13.501968 29.543304 -30.157486 29.543304l0 0c-16.655518 0 -30.157486 -13.22699 -30.157486 -29.543304z" fill-rule="evenodd"/><path fill="#000000" d="m228.31111 218.60426q-1.015625 -0.375 -1.515625 -1.0625q-0.484375 -0.703125 -0.484375 -1.671875q0 -1.453125 1.046875 -2.4375q1.046875 -1.0 2.78125 -1.0q1.75 0 2.8125 1.015625q1.078125 1.015625 1.078125 2.46875q0 0.9375 -0.5 1.625q-0.484375 0.6875 -1.46875 1.0625q1.21875 0.390625 1.859375 1.28125q0.65625 0.890625 0.65625 2.140625q0 1.703125 -1.21875 2.875q-1.21875 1.171875 -3.1875 1.171875q-1.984375 0 -3.203125 -1.171875q-1.203125 -1.171875 -1.203125 -2.921875q0 -1.3125 0.65625 -2.1875q0.671875 -0.875 1.890625 -1.1875zm-0.328125 -2.78125q0 0.9375 0.609375 1.546875q0.609375 0.59375 1.59375 0.59375q0.9375 0 1.546875 -0.59375q0.609375 -0.59375 0.609375 -1.453125q0 -0.90625 -0.625 -1.515625q-0.625 -0.625 -1.5625 -0.625q-0.9375 0 -1.5625 0.609375q-0.609375 0.59375 -0.609375 1.4375zm-0.53125 6.15625q0 0.703125 0.328125 1.359375q0.34375 0.65625 1.0 1.015625q0.65625 0.359375 1.40625 0.359375q1.171875 0 1.9375 -0.75q0.765625 -0.75 0.765625 -1.921875q0 -1.1875 -0.796875 -1.953125q-0.78125 -0.78125 -1.953125 -0.78125q-1.15625 0 -1.921875 0.765625q-0.765625 0.765625 -0.765625 1.90625z" fill-rule="nonzero"/><path fill="#000000" fill-opacity="0.0" d="m191.20825 62.563797l17.669296 17.291336" fill-rule="evenodd"/><path stroke="#000000" stroke-width="1.0" stroke-linejoin="round" stroke-linecap="butt" d="m191.20825 62.563797l17.669296 17.291336" fill-rule="evenodd"/><path fill="#000000" fill-opacity="0.0" d="m251.52666 121.63568l17.669296 17.291336" fill-rule="evenodd"/><path stroke="#000000" stroke-width="1.0" stroke-linejoin="round" stroke-linecap="butt" d="m251.52666 121.63568l17.669296 17.291336" fill-rule="evenodd"/><path fill="#000000" fill-opacity="0.0" d="m311.83817 180.73703l17.669312 17.291336" fill-rule="evenodd"/><path stroke="#000000" stroke-width="1.0" stroke-linejoin="round" stroke-linecap="butt" d="m311.83817 180.73703l17.669312 17.291336" fill-rule="evenodd"/><path fill="#000000" fill-opacity="0.0" d="m208.87755 121.63568l-17.669296 17.291336" fill-rule="evenodd"/><path stroke="#000000" stroke-width="1.0" stroke-linejoin="round" stroke-linecap="butt" d="m208.87755 121.63568l-17.669296 17.291336" fill-rule="evenodd"/><path fill="#000000" fill-opacity="0.0" d="m148.56602 62.563797l-17.669281 17.291336" fill-rule="evenodd"/><path stroke="#000000" stroke-width="1.0" stroke-linejoin="round" stroke-linecap="butt" d="m148.56602 62.563797l-17.669281 17.291336" fill-rule="evenodd"/><path fill="#000000" fill-opacity="0.0" d="m191.20825 180.73703l17.669296 17.291336" fill-rule="evenodd"/><path stroke="#000000" stroke-width="1.0" stroke-linejoin="round" stroke-linecap="butt" d="m191.20825 180.73703l17.669296 17.291336" fill-rule="evenodd"/></g></svg>